<mxfile host="app.diagrams.net" modified="2023-11-02T01:35:17.751Z" agent="Mozilla/5.0 (Windows NT 10.0; Win64; x64; rv:109.0) Gecko/20100101 Firefox/118.0" etag="sxKsOtxfMtfMx9-UW4xC" version="22.0.8" type="github">
  <diagram name="Page-1" id="oC_JULfXrlnZM_baARNX">
    <mxGraphModel dx="862" dy="470" grid="1" gridSize="10" guides="1" tooltips="1" connect="1" arrows="1" fold="1" page="1" pageScale="1" pageWidth="850" pageHeight="1100" math="0" shadow="0">
      <root>
        <mxCell id="0" />
        <mxCell id="1" parent="0" />
        <mxCell id="zJSYwPE14qAnYqkzWYsn-17" value="" style="edgeStyle=orthogonalEdgeStyle;rounded=0;orthogonalLoop=1;jettySize=auto;html=1;" edge="1" parent="1" source="zJSYwPE14qAnYqkzWYsn-1" target="zJSYwPE14qAnYqkzWYsn-2">
          <mxGeometry relative="1" as="geometry" />
        </mxCell>
        <mxCell id="zJSYwPE14qAnYqkzWYsn-1" value="start" style="rounded=1;whiteSpace=wrap;html=1;" vertex="1" parent="1">
          <mxGeometry x="305" y="50" width="105" height="50" as="geometry" />
        </mxCell>
        <mxCell id="zJSYwPE14qAnYqkzWYsn-18" value="" style="edgeStyle=orthogonalEdgeStyle;rounded=0;orthogonalLoop=1;jettySize=auto;html=1;" edge="1" parent="1" source="zJSYwPE14qAnYqkzWYsn-2" target="zJSYwPE14qAnYqkzWYsn-3">
          <mxGeometry relative="1" as="geometry" />
        </mxCell>
        <mxCell id="zJSYwPE14qAnYqkzWYsn-2" value="Memasukan bilangan " style="shape=parallelogram;perimeter=parallelogramPerimeter;whiteSpace=wrap;html=1;fixedSize=1;" vertex="1" parent="1">
          <mxGeometry x="281.25" y="150" width="152.5" height="50" as="geometry" />
        </mxCell>
        <mxCell id="zJSYwPE14qAnYqkzWYsn-8" value="" style="edgeStyle=orthogonalEdgeStyle;rounded=0;orthogonalLoop=1;jettySize=auto;html=1;" edge="1" parent="1" source="zJSYwPE14qAnYqkzWYsn-3" target="zJSYwPE14qAnYqkzWYsn-4">
          <mxGeometry relative="1" as="geometry" />
        </mxCell>
        <mxCell id="zJSYwPE14qAnYqkzWYsn-3" value="Jika bilangan &lt;br&gt;%=0" style="rhombus;whiteSpace=wrap;html=1;" vertex="1" parent="1">
          <mxGeometry x="260" y="230" width="195" height="100" as="geometry" />
        </mxCell>
        <mxCell id="zJSYwPE14qAnYqkzWYsn-9" value="" style="edgeStyle=orthogonalEdgeStyle;rounded=0;orthogonalLoop=1;jettySize=auto;html=1;" edge="1" parent="1" source="zJSYwPE14qAnYqkzWYsn-4" target="zJSYwPE14qAnYqkzWYsn-5">
          <mxGeometry relative="1" as="geometry" />
        </mxCell>
        <mxCell id="zJSYwPE14qAnYqkzWYsn-4" value="Memunculkan bilangan&lt;br&gt;genap " style="shape=parallelogram;perimeter=parallelogramPerimeter;whiteSpace=wrap;html=1;fixedSize=1;" vertex="1" parent="1">
          <mxGeometry x="281.25" y="370" width="152.5" height="50" as="geometry" />
        </mxCell>
        <mxCell id="zJSYwPE14qAnYqkzWYsn-5" value="Selesai" style="ellipse;whiteSpace=wrap;html=1;" vertex="1" parent="1">
          <mxGeometry x="303" y="460" width="109" height="60" as="geometry" />
        </mxCell>
        <mxCell id="zJSYwPE14qAnYqkzWYsn-6" value="Memasukan bilangan ganjil" style="shape=parallelogram;perimeter=parallelogramPerimeter;whiteSpace=wrap;html=1;fixedSize=1;" vertex="1" parent="1">
          <mxGeometry x="520" y="370" width="152.5" height="50" as="geometry" />
        </mxCell>
        <mxCell id="zJSYwPE14qAnYqkzWYsn-14" value="" style="endArrow=none;html=1;rounded=0;entryX=1;entryY=0.5;entryDx=0;entryDy=0;" edge="1" parent="1" target="zJSYwPE14qAnYqkzWYsn-3">
          <mxGeometry width="50" height="50" relative="1" as="geometry">
            <mxPoint x="600" y="280" as="sourcePoint" />
            <mxPoint x="450" y="320" as="targetPoint" />
          </mxGeometry>
        </mxCell>
        <mxCell id="zJSYwPE14qAnYqkzWYsn-15" value="" style="endArrow=none;html=1;rounded=0;entryX=0.5;entryY=0;entryDx=0;entryDy=0;" edge="1" parent="1" target="zJSYwPE14qAnYqkzWYsn-6">
          <mxGeometry width="50" height="50" relative="1" as="geometry">
            <mxPoint x="600" y="280" as="sourcePoint" />
            <mxPoint x="465" y="290" as="targetPoint" />
          </mxGeometry>
        </mxCell>
        <mxCell id="zJSYwPE14qAnYqkzWYsn-16" value="" style="endArrow=none;html=1;rounded=0;exitX=0.5;exitY=1;exitDx=0;exitDy=0;entryX=1;entryY=0.5;entryDx=0;entryDy=0;" edge="1" parent="1" source="zJSYwPE14qAnYqkzWYsn-6" target="zJSYwPE14qAnYqkzWYsn-5">
          <mxGeometry width="50" height="50" relative="1" as="geometry">
            <mxPoint x="610" y="290" as="sourcePoint" />
            <mxPoint x="470" y="290" as="targetPoint" />
            <Array as="points">
              <mxPoint x="600" y="490" />
            </Array>
          </mxGeometry>
        </mxCell>
      </root>
    </mxGraphModel>
  </diagram>
</mxfile>
